<?xml version="1.0" standalone="no"?>
<!DOCTYPE svg PUBLIC "-//W3C//DTD SVG 20010904//EN"
 "http://www.w3.org/TR/2001/REC-SVG-20010904/DTD/svg10.dtd">
<svg version="1.0" xmlns="http://www.w3.org/2000/svg"
 width="120.000000pt" height="120.000000pt" viewBox="0 0 120.000000 120.000000"
 preserveAspectRatio="xMidYMid meet">

<g transform="translate(0.000000,120.000000) scale(0.100000,-0.100000)"
fill="#000000" stroke="none">
<path d="M210 793 c1 -332 3 -384 18 -428 18 -51 56 -120 93 -166 14 -17 23
-48 27 -95 8 -79 26 -92 47 -32 7 20 25 52 40 70 35 41 69 117 84 186 14 69
16 842 1 842 -6 0 -10 -128 -10 -362 0 -210 -4 -378 -10 -398 -5 -19 -32 -60
-60 -90 -58 -65 -68 -52 -10 14 21 26 44 63 50 84 16 57 14 755 -2 750 -10 -4
-14 -75 -18 -294 l-5 -289 -30 -64 c-38 -84 -44 -63 -8 31 l27 73 1 269 c0
207 -3 270 -12 273 -10 4 -13 -41 -13 -200 0 -195 -7 -256 -33 -282 -6 -7 -7
-2 -2 15 13 40 18 470 6 470 -7 0 -11 -36 -11 -100 0 -60 -4 -100 -10 -100 -6
0 -10 40 -10 100 0 67 -4 100 -11 100 -8 0 -10 -54 -8 -184 3 -127 1 -179 -6
-168 -5 9 -12 90 -15 180 -3 101 -9 161 -15 160 -6 -2 -9 -83 -6 -228 3 -194
6 -233 23 -280 11 -30 22 -68 25 -85 3 -23 -1 -18 -21 23 -51 105 -56 141 -56
369 0 135 -4 213 -10 213 -13 0 -14 -623 0 -668 5 -19 25 -51 45 -73 19 -21
35 -46 35 -55 0 -20 -79 66 -97 105 -9 18 -12 121 -13 359 0 214 -4 332 -10
332 -6 0 -10 -132 -10 -377z"/>
<path d="M731 1151 c-12 -12 -25 -21 -29 -21 -18 0 -44 -40 -39 -59 3 -11 -1
-22 -8 -25 -16 -6 -20 -156 -5 -156 6 0 10 7 10 17 0 15 1 15 18 0 10 -10 23
-17 28 -17 11 0 37 -40 30 -47 -3 -3 -16 8 -30 23 -19 23 -27 26 -37 17 -9 -9
-10 -18 -1 -37 6 -13 8 -27 4 -31 -4 -3 -12 9 -18 27 -11 31 -12 28 -12 -39
-1 -42 3 -73 9 -73 6 0 8 15 4 38 l-6 37 14 -30 c10 -22 11 -35 3 -47 -8 -13
-7 -23 2 -38 15 -24 15 -30 2 -30 -5 0 -13 15 -18 33 -8 27 -10 21 -10 -40 -1
-43 3 -73 9 -73 6 0 8 15 4 38 l-6 37 14 -30 c10 -22 11 -35 3 -47 -8 -13 -7
-23 2 -38 15 -24 15 -30 2 -30 -5 0 -14 15 -19 33 -8 27 -9 22 -10 -40 -1 -45
3 -73 9 -73 7 0 9 15 6 38 -3 20 -3 28 0 17 4 -11 13 -28 22 -37 14 -16 14
-18 -1 -18 -19 0 -22 -22 -7 -50 8 -16 6 -22 -10 -32 -22 -14 -27 -57 -8 -76
9 -9 9 -12 0 -12 -16 0 -15 -52 1 -69 10 -11 10 -13 0 -7 -20 11 -16 -34 7
-82 11 -23 27 -42 35 -42 8 0 24 -9 35 -20 22 -22 50 -26 67 -9 8 8 13 8 17 0
11 -18 45 -13 63 9 10 11 25 20 35 20 22 0 61 79 55 112 -3 20 -5 19 -12 -9
-4 -18 -12 -33 -17 -33 -6 0 -7 8 -3 17 18 44 18 53 -3 53 -12 0 -28 -9 -36
-21 -8 -12 -19 -18 -25 -15 -13 8 18 46 38 46 7 0 20 8 27 18 12 16 13 15 14
-6 0 -13 4 -21 9 -17 5 3 9 35 9 71 0 36 -3 63 -6 60 -3 -3 -11 2 -18 12 -13
16 -16 15 -39 -11 -14 -16 -29 -25 -35 -22 -12 7 19 45 37 45 7 0 22 14 33 32
l19 32 -6 -38 c-4 -27 -3 -37 5 -32 6 3 10 35 10 72 0 42 -3 61 -9 53 -5 -8
-9 -22 -9 -31 0 -11 -8 -18 -20 -18 -12 0 -25 -10 -31 -24 -7 -14 -17 -22 -25
-19 -19 7 12 53 37 53 26 0 47 46 30 63 -10 9 -18 6 -37 -17 -19 -21 -28 -26
-37 -17 -8 8 -8 11 0 11 7 0 14 9 18 19 3 12 12 18 20 15 9 -4 22 7 35 28 l21
33 -7 -39 c-5 -26 -3 -37 4 -32 13 8 13 136 1 136 -6 0 -5 8 1 19 16 30 12 55
-11 69 -18 11 -24 11 -40 -4 -10 -9 -19 -23 -19 -30 0 -8 -6 -11 -15 -8 -12 5
-12 9 3 30 9 13 23 24 30 24 7 0 21 14 32 32 l19 32 -6 -38 c-4 -28 -3 -37 5
-32 8 5 12 45 12 117 0 66 -4 108 -9 104 -5 -3 -12 -1 -15 4 -3 5 1 11 9 15
19 7 20 51 2 68 -8 7 -12 21 -9 31 4 17 -23 57 -40 57 -4 0 -17 9 -29 21 -40
40 -79 12 -65 -47 7 -28 22 -30 48 -7 18 16 19 16 9 -9 -12 -32 -7 -38 33 -38
l31 -1 -27 -15 c-34 -18 -35 -28 -6 -48 l22 -16 -25 0 c-14 0 -28 -3 -32 -6
-8 -9 11 -57 29 -70 12 -9 12 -15 1 -36 -7 -13 -18 -23 -25 -20 -10 3 -9 9 4
23 16 18 16 20 -6 44 -13 14 -29 25 -36 25 -24 0 -35 -75 -12 -82 9 -3 8 -9
-4 -21 -15 -15 -17 -15 -30 0 -10 13 -10 17 0 20 14 5 16 51 3 72 -8 12 -15
13 -35 3 -24 -11 -25 -10 -16 12 10 29 5 36 -28 36 l-24 0 22 18 23 18 -28 22
-28 22 33 0 c31 0 32 1 26 32 -6 30 -5 30 12 15 26 -24 41 -21 48 7 14 59 -25
87 -65 47z m-74 -213 c-3 -8 -6 -5 -6 6 -1 11 2 17 5 13 3 -3 4 -12 1 -19z
m296 -44 c4 -23 3 -24 -10 -11 -9 8 -12 20 -9 26 10 16 13 14 19 -15z m-7 -81
c-11 -11 -17 4 -9 23 7 18 8 18 11 1 2 -10 1 -21 -2 -24z m-204 -33 c9 0 9 -3
-2 -10 -11 -7 -18 -3 -27 13 -6 12 -9 26 -5 31 3 5 9 0 13 -12 5 -12 14 -22
21 -22z m155 6 c-6 -13 -17 -22 -24 -19 -10 4 -9 8 2 20 8 8 15 19 15 24 0 6
4 8 9 5 5 -4 4 -16 -2 -30z m-79 -35 c-10 -17 -12 -17 -27 -2 -15 14 -15 17
-1 28 22 17 43 -3 28 -26z m-78 -46 c9 -6 9 -10 -1 -16 -17 -10 -52 42 -35 53
6 4 14 -1 18 -11 4 -11 12 -22 18 -26z m77 -30 c-13 -12 -17 -13 -27 0 -18 21
8 48 28 28 11 -11 11 -15 -1 -28z m133 5 c0 -11 -7 -20 -15 -20 -13 0 -13 3
-3 20 7 11 14 20 15 20 2 0 3 -9 3 -20z m-208 -50 c10 0 9 -3 -1 -9 -10 -6
-20 -3 -32 12 -12 16 -14 24 -6 29 7 4 15 -1 19 -12 4 -11 13 -20 20 -20z
m156 5 c-12 -27 -23 -31 -33 -15 -3 6 -2 10 4 10 5 0 13 9 16 20 4 11 10 18
15 15 5 -3 4 -16 -2 -30z m-79 -31 c-8 -10 -15 -10 -29 -2 -17 11 -17 13 -2
24 22 16 48 -2 31 -22z m131 -5 c0 -12 -4 -17 -11 -14 -12 8 -49 -23 -49 -41
0 -8 -6 -11 -15 -8 -12 5 -12 9 2 30 8 13 21 24 28 24 7 0 18 7 25 15 17 20
20 19 20 -6z m-218 -33 c13 -18 14 -25 5 -29 -7 -3 -20 8 -29 24 -21 36 -1 40
24 5z m98 -26 c0 -4 -6 -13 -14 -19 -10 -9 -16 -7 -27 5 -10 13 -10 17 1 24
14 9 40 3 40 -10z m-88 -60 c9 0 8 -3 -2 -10 -11 -7 -19 -4 -32 13 -12 16 -13
24 -5 29 7 4 15 -1 19 -12 4 -11 13 -20 20 -20z m76 -29 c-10 -17 -12 -17 -27
-2 -15 14 -15 17 -1 28 22 17 43 -3 28 -26z m-81 -63 c-13 -8 -41 28 -32 42 4
6 14 1 25 -12 12 -16 15 -25 7 -30z m93 5 c0 -2 -6 -11 -14 -18 -12 -12 -16
-12 -27 1 -10 13 -10 17 1 24 12 8 40 3 40 -7z m-103 -53 c19 -29 -2 -34 -21
-5 -12 19 -13 25 -4 25 7 0 19 -9 25 -20z m94 -39 c-14 -14 -18 -14 -31 -1
-14 13 -14 16 -1 26 11 8 20 9 32 1 15 -9 15 -11 0 -26z m129 -1 c0 -11 -7
-20 -15 -20 -13 0 -13 3 -3 20 7 11 14 20 15 20 2 0 3 -9 3 -20z m-244 -17 c4
3 15 -4 24 -16 12 -15 15 -24 7 -29 -6 -3 -19 5 -29 18 -11 13 -26 24 -34 24
-8 0 -14 7 -14 17 0 14 2 14 20 -2 11 -10 23 -15 26 -12z m192 -28 c-6 -13
-16 -21 -24 -18 -11 4 -10 9 2 29 20 30 37 22 22 -11z m-68 -15 c0 -4 -6 -13
-14 -19 -10 -9 -16 -7 -27 5 -10 13 -10 17 1 24 14 9 40 3 40 -10z m-150 -31
c0 -5 -4 -9 -10 -9 -5 0 -10 7 -10 16 0 8 5 12 10 9 6 -3 10 -10 10 -16z m47
-19 c8 -11 9 -21 3 -25 -8 -5 -30 24 -30 39 0 13 16 5 27 -14z m91 -39 c-10
-17 -12 -17 -27 -2 -15 14 -15 17 -1 28 22 17 43 -3 28 -26z m-148 -1 c6 -11
7 -20 2 -20 -6 0 -12 9 -15 20 -3 11 -3 20 -1 20 2 0 8 -9 14 -20z m64 -39
c13 -15 14 -20 4 -23 -7 -3 -18 2 -25 11 -26 33 -7 44 21 12z m165 -5 c-7 -14
-17 -22 -25 -19 -10 4 -11 9 -1 24 18 29 39 25 26 -5z m-69 -13 c0 -2 -6 -11
-14 -18 -12 -12 -16 -12 -27 1 -10 13 -10 17 1 24 12 8 40 3 40 -7z"/>
<path d="M641 388 c-1 -21 4 -38 9 -38 11 0 11 14 0 50 -7 22 -8 21 -9 -12z"/>
</g>
</svg>
